<svg width="16" height="16" viewBox="0 0 16 16" fill="none" xmlns="http://www.w3.org/2000/svg">
<g id="Group 566669">
<path id="Vector" d="M15.9678 11.9791V14.3877C15.9687 14.6113 15.9229 14.8327 15.8333 15.0375C15.7438 15.2424 15.6124 15.4263 15.4476 15.5775C15.2828 15.7286 15.0883 15.8437 14.8765 15.9154C14.6647 15.987 14.4402 16.0136 14.2175 15.9935C11.7469 15.725 9.37374 14.8808 7.28865 13.5286C5.34875 12.2959 3.70406 10.6512 2.47136 8.71134C1.11448 6.61679 0.270057 4.23206 0.00651676 1.75036C-0.0135469 1.52834 0.0128394 1.30457 0.0839952 1.0933C0.155151 0.882034 0.269517 0.687898 0.419813 0.523253C0.570109 0.358607 0.75304 0.22706 0.956961 0.136987C1.16088 0.0469136 1.38132 0.000287778 1.60425 7.78413e-05H4.0129C4.40254 -0.00375708 4.78028 0.134222 5.07572 0.388297C5.37116 0.642373 5.56413 0.995207 5.61866 1.38103C5.72032 2.15185 5.90886 2.9087 6.18068 3.63713C6.2887 3.9245 6.31208 4.23682 6.24804 4.53707C6.18401 4.83732 6.03525 5.11292 5.81938 5.33121L4.79972 6.35087C5.94267 8.36092 7.60696 10.0252 9.61701 11.1682L10.6367 10.1485C10.855 9.93264 11.1306 9.78387 11.4308 9.71984C11.7311 9.6558 12.0434 9.67918 12.3308 9.78721C13.0592 10.059 13.816 10.2476 14.5869 10.3492C14.9769 10.4042 15.333 10.6007 15.5877 10.9012C15.8423 11.2017 15.9776 11.5853 15.9678 11.9791Z" fill="#307FE2"/>
</g>
</svg>
