<svg width="13" height="16" viewBox="0 0 13 16" fill="none" xmlns="http://www.w3.org/2000/svg">
<g id="Group 566667">
<g id="Group 4619">
<path id="Vector" d="M1.9227 12.26H0V16.0001H1.9227V12.26Z" fill="#307FE2"/>
<path id="Vector_2" d="M11.9843 12.4069L7.21871 15.6093H2.29492V12.6775L4.70732 11.3245L8.04145 11.573C8.23569 11.5875 8.40054 11.7234 8.45114 11.9117C8.51701 12.1565 8.37151 12.4088 8.12666 12.475L5.7924 13.1032C5.69305 13.1292 5.63426 13.2323 5.66105 13.3305C5.68338 13.4135 5.75854 13.4686 5.84041 13.4686C5.85641 13.4686 5.87278 13.466 5.88878 13.4615L8.22304 12.8334C8.5438 12.747 8.76781 12.4832 8.82326 12.1762L11.5222 11.4089C11.7548 11.3416 12.0003 11.4331 12.1347 11.6337C12.3066 11.8897 12.2385 12.2358 11.9843 12.4069Z" fill="#307FE2"/>
<path id="Vector_3" d="M11.4647 6.25753L10.588 5.75109C10.7082 5.20892 10.7082 4.6448 10.588 4.10263L11.4647 3.59618C11.541 3.55265 11.5759 3.46111 11.5484 3.37664C11.3363 2.73623 11.001 2.15574 10.5519 1.65115C10.4931 1.58492 10.3963 1.56892 10.3193 1.6132L9.44299 2.11927C9.03367 1.74493 8.54508 1.46287 8.01557 1.29504V0.283642C8.01557 0.19508 7.95342 0.119541 7.86709 0.101308C7.21255 -0.0337692 6.52823 -0.0337692 5.87481 0.101308C5.78848 0.119541 5.72633 0.19508 5.72633 0.283642V1.29542C5.19645 1.46324 4.70786 1.74493 4.29854 2.11927L3.42184 1.61357C3.34556 1.56929 3.24844 1.58529 3.18964 1.65153C2.74051 2.15574 2.4056 2.73661 2.19313 3.37701C2.16522 3.46148 2.2002 3.55302 2.27685 3.59656L3.15355 4.103C3.03373 4.64517 3.03373 5.20929 3.15355 5.75146L2.27685 6.2579C2.2002 6.30144 2.16559 6.39372 2.19313 6.47745C2.40523 7.11785 2.74051 7.69835 3.18964 8.20293C3.24844 8.26991 3.34556 8.28591 3.42184 8.24089L4.29854 7.73482C4.70823 8.10991 5.19682 8.39234 5.72596 8.55904V9.57193C5.72596 9.66012 5.7881 9.73566 5.87443 9.7539C6.20152 9.82199 6.53717 9.85548 6.87095 9.85548C7.20473 9.85548 7.54001 9.82088 7.86747 9.7539C7.9538 9.73566 8.01594 9.66012 8.01594 9.57193V8.55904C8.54508 8.39234 9.03329 8.10991 9.44336 7.73482L10.3197 8.24089C10.396 8.28591 10.4935 8.26991 10.5523 8.20293C11.0014 7.69872 11.3359 7.11785 11.5488 6.47745C11.5759 6.39372 11.541 6.30107 11.4647 6.25753ZM6.87021 6.62183C5.93583 6.62183 5.17524 5.8616 5.17524 4.92686C5.17524 3.99211 5.93546 3.23189 6.87021 3.23189C7.80532 3.23189 8.5648 3.99211 8.5648 4.92686C8.5648 5.8616 7.80532 6.62183 6.87021 6.62183Z" fill="#307FE2"/>
</g>
</g>
</svg>
