<svg width="99" height="20" viewBox="0 0 99 20" fill="none" xmlns="http://www.w3.org/2000/svg">
<g id="Group 4630">
<g id="Group 2029">
<path id="Vector" fill-rule="evenodd" clip-rule="evenodd" d="M53.7599 2.6665H38.375V7.12668H43.5188V16.6665H48.5299V7.12668H53.7599V2.6665Z" fill="#307FE2"/>
<path id="Vector_2" fill-rule="evenodd" clip-rule="evenodd" d="M68.7867 16.6311L63.9349 2.6665H57.8354L52.9902 16.6311H58.0013L60.8885 6.7019L63.769 16.6311H68.7867Z" fill="#307FE2"/>
<path id="Vector_3" fill-rule="evenodd" clip-rule="evenodd" d="M84.1381 2.6665H68.7598V7.12668H73.9036V16.6665H78.9146V7.12668H84.1381V2.6665Z" fill="#307FE2"/>
<path id="Vector_4" fill-rule="evenodd" clip-rule="evenodd" d="M98.9996 16.6311L94.1544 2.6665H88.0549L83.2031 16.6311H88.2208L91.1013 6.7019L93.9885 16.6311H98.9996Z" fill="#307FE2"/>
</g>
<g id="Group 2028">
<path id="Vector_5" fill-rule="evenodd" clip-rule="evenodd" d="M14.0674 14.7323C14.8434 11.8058 15.4172 8.95466 15.4172 8.95466C15.4955 8.6873 15.5104 8.4084 15.461 8.13565C15.4116 7.8629 15.299 7.60224 15.1303 7.37021C14.5518 6.73058 12.7787 6.95215 12.7787 6.95215C12.7787 6.95215 10.0133 6.98142 7.19607 7.28242C4.68457 7.55416 2.12134 7.9973 1.176 8.16453C0.978977 8.76493 0.877656 9.38693 0.875 10.0124C0.875 14.4145 5.82745 18.152 12.7035 19.4856C13.0656 18.3234 13.6065 16.5216 14.0768 14.7406L14.0674 14.7323Z" fill="#307FE2"/>
<path id="Vector_6" fill-rule="evenodd" clip-rule="evenodd" d="M19.1799 12.893C19.147 9.34783 19.2552 6.04515 19.2552 6.04515C19.2197 5.91457 19.2222 5.77809 19.2625 5.64861C19.3028 5.51914 19.3796 5.40094 19.4856 5.30518C19.8609 5.13538 20.2781 5.05201 20.6991 5.06271C20.6991 5.06271 23.9913 5.14632 27.688 5.56438C30.3829 5.87375 33.2989 6.36706 34.6158 6.60117C32.1936 2.75084 25.7879 0 18.2581 0C10.7283 0 4.28028 2.77592 1.87695 6.64716C3.02923 6.43813 6.16625 5.89465 9.054 5.56438C12.746 5.14632 16.0382 5.06271 16.0382 5.06271C16.4592 5.05165 16.8765 5.13504 17.2516 5.30518C17.3577 5.40094 17.4345 5.51914 17.4748 5.64861C17.5151 5.77809 17.5176 5.91457 17.4821 6.04515C17.4821 6.04515 17.595 9.34783 17.562 12.893C17.5338 15.6062 17.4398 18.4532 17.3833 20C17.6702 20 17.9618 20 18.2534 20C18.6203 20 18.9871 20 19.3493 20C19.2928 18.4574 19.1988 15.6187 19.1752 12.893H19.1799Z" fill="#307FE2"/>
<path id="Vector_7" fill-rule="evenodd" clip-rule="evenodd" d="M29.5598 7.2741C26.7379 6.9731 23.9724 6.94383 23.9724 6.94383C23.9724 6.94383 22.1946 6.73062 21.6208 7.36189C21.4508 7.5934 21.3374 7.85407 21.288 8.12702C21.2385 8.39997 21.2542 8.67911 21.3339 8.94634C21.3339 8.94634 21.9077 11.7975 22.679 14.7239C23.1493 16.484 23.6808 18.2607 24.043 19.4313C30.8014 18.0684 35.6504 14.3602 35.6504 10.004C35.643 9.36339 35.5322 8.72702 35.3212 8.1144C34.23 7.9221 31.8643 7.52494 29.5457 7.27828L29.5598 7.2741Z" fill="#307FE2"/>
</g>
</g>
</svg>
