<svg width="14" height="16" viewBox="0 0 14 16" fill="none" xmlns="http://www.w3.org/2000/svg">
<g id="Group 566666">
<g id="Group 4617">
<path id="Vector" d="M3 6.24995V6.74998C3 6.88797 3.11195 6.99993 3.24995 6.99993H7.74992C7.81618 6.99993 7.87989 6.97365 7.92674 6.9268C7.97359 6.87984 7.99998 6.81624 7.99998 6.74998V6.24995C7.99998 6.18368 7.97359 6.12009 7.92674 6.07324C7.87989 6.02627 7.81618 6 7.74992 6H3.24995C3.18368 6 3.12009 6.02627 3.07312 6.07324C3.02627 6.12009 3 6.18368 3 6.24995Z" fill="#307FE2"/>
<path id="Vector_2" fill-rule="evenodd" clip-rule="evenodd" d="M8.99994 3H1.99999C1.46951 3 0.960886 3.21077 0.58571 3.58583C0.210653 3.96089 0 4.4696 0 4.99999V13.9999C0 14.5303 0.210656 15.039 0.58571 15.4141C0.960856 15.7891 1.46948 15.9999 1.99999 15.9999H8.99994C9.53041 15.9999 10.039 15.7891 10.4142 15.4141C10.7893 15.039 10.9999 14.5303 10.9999 13.9999V4.99999C10.9999 4.46963 10.7893 3.96089 10.4142 3.58583C10.0391 3.21077 9.53044 3 8.99994 3ZM2.14641 5.14644C2.24011 5.05262 2.3673 4.99996 2.49995 4.99996H8.49991C8.63256 4.99996 8.75974 5.05262 8.85345 5.14644C8.94727 5.24014 8.99993 5.36733 8.99993 5.49998V7.49994C8.99993 7.63259 8.94727 7.75977 8.85345 7.85348C8.75975 7.94729 8.63256 7.99996 8.49991 7.99996H2.49995C2.3673 7.99996 2.24012 7.9473 2.14641 7.85348C2.05259 7.75977 1.99993 7.63259 1.99993 7.49994V5.49998C1.99993 5.36733 2.05259 5.24015 2.14641 5.14644ZM7.99994 8.99999H2.99998C2.73468 8.99999 2.48031 9.10532 2.29278 9.29283C2.10526 9.48036 1.99993 9.73474 1.99993 9.99991C1.99993 10.2651 2.10526 10.5195 2.29278 10.707C2.4803 10.8946 2.73468 11 2.99998 11H7.99994C8.26512 11 8.51949 10.8946 8.70702 10.707C8.89454 10.5195 8.99987 10.2651 8.99987 9.99991C8.99987 9.73473 8.89454 9.48036 8.70702 9.29283C8.5195 9.10531 8.26512 8.99999 7.99994 8.99999ZM7.99994 12H2.99998C2.73468 12 2.48031 12.1054 2.29278 12.2929C2.10526 12.4805 1.99993 12.7348 1.99993 13C1.99993 13.2652 2.10526 13.5196 2.29278 13.7071C2.4803 13.8946 2.73468 14.0001 2.99998 14.0001H7.99994C8.26512 14.0001 8.51949 13.8946 8.70702 13.7071C8.89454 13.5196 8.99987 13.2652 8.99987 13C8.99987 12.7348 8.89454 12.4805 8.70702 12.2929C8.5195 12.1054 8.26512 12 7.99994 12Z" fill="#307FE2"/>
<path id="Vector_3" d="M11.9999 13V4.00009C11.9999 3.46962 11.7892 2.96087 11.4141 2.58581C11.0391 2.21076 10.5303 1.99999 9.99996 1.99999H4C4 1.46963 4.21077 0.960886 4.58583 0.585829C4.96089 0.210772 5.4696 0 5.99999 0H11.9999C12.5304 0 13.039 0.210772 13.4142 0.585829C13.7893 0.960886 13.9999 1.4696 13.9999 1.99999V10.9999C13.9999 11.5303 13.7893 12.039 13.4142 12.4141C13.0391 12.7891 12.5304 12.9999 11.9999 12.9999V13Z" fill="#307FE2"/>
</g>
</g>
</svg>
