<svg width="14" height="16" viewBox="0 0 14 16" fill="none" xmlns="http://www.w3.org/2000/svg">
<g id="Group 566668">
<g id="Group 4618">
<path id="Subtract" fill-rule="evenodd" clip-rule="evenodd" d="M6.54545 16C6.54545 16 13.0909 11.6364 13.0909 6.54545C13.0909 4.80949 12.4013 3.14463 11.1738 1.91712C9.94628 0.689608 8.28142 0 6.54545 0C4.80949 0 3.14463 0.689608 1.91712 1.91712C0.689608 3.14463 0 4.80949 0 6.54545C0 11.6364 6.54545 16 6.54545 16ZM8.72692 6.54559C8.72692 7.75057 7.75008 8.72741 6.5451 8.72741C5.34011 8.72741 4.36328 7.75057 4.36328 6.54559C4.36328 5.3406 5.34011 4.36377 6.5451 4.36377C7.75008 4.36377 8.72692 5.3406 8.72692 6.54559Z" fill="#307FE2"/>
</g>
</g>
</svg>
