<svg width="157" height="34" viewBox="0 0 157 34" fill="none" xmlns="http://www.w3.org/2000/svg">
<g id="Group 2027">
<path id="Vector" d="M153.012 5.96969C150.947 5.25653 150.055 4.76773 150.055 3.70802C150.055 2.9134 150.833 2.058 152.622 2.058C154.067 2.058 155.144 2.44464 155.693 2.70973L156.382 0.691819C155.58 0.325866 154.341 0 152.668 0C149.32 0 147.211 1.7108 147.211 3.95307C147.211 5.92895 148.838 7.1322 151.383 7.94687C153.356 8.57791 154.135 9.18956 154.135 10.2286C154.135 11.3497 153.127 12.103 151.315 12.103C149.87 12.103 148.495 11.6956 147.577 11.2269L146.958 13.3062C147.807 13.753 149.504 14.1616 151.131 14.1616C155.122 14.1616 157.001 12.2458 157.001 10.045C157.001 8.06842 155.693 6.86582 153.012 5.96969ZM141.823 4.21816C141.823 2.70973 140.631 2.01727 138.796 2.01727C137.903 2.01727 137.329 2.07869 137.055 2.13882V6.47918H138.727C140.631 6.47918 141.823 5.58305 141.823 4.21816ZM143.979 10.1271C144.459 11.8392 144.872 13.4278 145.194 13.9579H142.282C142.051 13.5493 141.686 12.4288 141.249 10.7174C140.813 8.92511 140.08 8.35355 138.476 8.31282H137.055V13.9579H134.257V0.406686C135.312 0.245046 136.894 0.1222 138.521 0.1222C140.745 0.1222 142.259 0.447419 143.29 1.222C144.139 1.85433 144.621 2.81189 144.621 3.97311C144.621 5.74533 143.268 6.94858 141.823 7.41669V7.47811C142.924 7.84536 143.588 8.80227 143.979 10.1271ZM128.501 7.04944C128.501 4.46256 127.057 2.01727 124.237 2.01727C121.44 2.01727 119.95 4.31902 119.95 7.1516C119.95 9.94409 121.532 12.1644 124.237 12.1644C126.966 12.1644 128.501 9.9234 128.501 7.04944ZM131.483 6.94858C131.483 11.5534 128.342 14.1823 124.076 14.1823C119.72 14.1823 116.969 11.2269 116.969 7.19233C116.969 2.97482 119.95 0 124.306 0C128.823 0 131.483 3.03625 131.483 6.94858ZM104.588 2.32309H108.991V13.9579H111.81V2.32309H116.259V0.224356H104.588V2.32309ZM100.897 7.04944C100.897 4.46256 99.4525 2.01727 96.6324 2.01727C93.8349 2.01727 92.3445 4.31902 92.3445 7.1516C92.3445 9.94409 93.9266 12.1644 96.6324 12.1644C99.3608 12.1644 100.897 9.9234 100.897 7.04944ZM103.877 6.94858C103.877 11.5534 100.737 14.1823 96.4717 14.1823C92.1154 14.1823 89.363 11.2269 89.363 7.19233C89.363 2.97482 92.3445 0 96.7008 0C101.218 0 103.877 3.03625 103.877 6.94858ZM82.394 0.224356L80.262 5.72529C79.6655 7.33458 79.1375 9.02727 78.725 10.5137H78.6567C78.2661 8.98589 77.7853 7.35527 77.2346 5.74533L75.2169 0.224356H71.5029L70.4707 13.9579H73.1075L73.4515 8.43567C73.5657 6.56129 73.6581 4.38044 73.7272 2.58689H73.773C74.1855 4.29898 74.7354 6.17335 75.3318 7.92618L77.3954 13.7944H79.5739L81.82 7.84536C82.5089 6.11193 83.1504 4.2576 83.6545 2.58689H83.7236C83.7003 4.44187 83.8152 6.58069 83.9069 8.35355L84.2051 13.9579H86.9561L86.0621 0.224356H82.394ZM49.3745 0.226296L43.5482 13.9605H49.4989L52.6354 5.81257L55.8293 13.9605H61.8418L55.8293 0.226296H49.3745ZM45.1143 0.226296H30.2008V4.30092H34.6516V13.9605H40.8562V4.30092H45.1143V0.226296ZM19.1715 0.226296L13.346 13.9605H19.2981L22.4317 5.81257L25.627 13.9605H31.6432L25.627 0.226296H19.1715ZM14.9127 0.226296H0V4.30092H4.38537V13.9605H10.5907V4.30092H14.9127V0.226296ZM153.701 27.0178C152.486 26.7876 151.32 26.5141 151.32 25.5204C151.32 24.729 152.179 24.2538 153.442 24.2538C154.332 24.2538 155.207 24.4839 155.904 24.8441C155.984 24.8874 156.066 24.8583 156.098 24.8001L156.357 24.4122C156.406 24.3398 156.39 24.2829 156.308 24.2395C155.466 23.8219 154.591 23.5484 153.474 23.5484C151.854 23.5484 150.478 24.2247 150.478 25.5204C150.478 27.0611 152.276 27.493 153.539 27.709C154.607 27.9101 155.806 28.1267 155.806 29.1482C155.806 30.0844 154.867 30.5881 153.539 30.5881C152.535 30.5881 151.628 30.2855 150.818 29.7527C150.737 29.6959 150.672 29.7094 150.624 29.7818L150.349 30.1847C150.316 30.2428 150.316 30.3004 150.397 30.3431C151.304 30.9625 152.357 31.2793 153.522 31.2793C155.466 31.2793 156.681 30.4439 156.681 29.1198C156.681 27.5932 155.093 27.2771 153.701 27.0178ZM145.085 23.5484C144 23.5484 142.964 23.7643 142.073 24.1096C141.992 24.1387 141.959 24.1962 141.959 24.2538V31.0051C141.959 31.0775 142.024 31.1202 142.105 31.1202H142.688C142.769 31.1202 142.818 31.0775 142.818 31.0051V24.5997C143.449 24.3979 144.276 24.2538 145.085 24.2538C146.786 24.2538 147.741 24.9592 147.741 26.5717V31.0051C147.741 31.0775 147.806 31.1202 147.887 31.1202H148.47C148.551 31.1202 148.6 31.0775 148.6 31.0051V26.5426C148.6 24.4988 147.24 23.5484 145.085 23.5484ZM139.045 26.3266C139.045 25.1318 138.187 24.2538 136.454 24.2538C134.753 24.2538 133.879 25.1318 133.879 26.3266V28.5152C133.879 29.7094 134.753 30.5881 136.454 30.5881C138.187 30.5881 139.045 29.7094 139.045 28.5152V26.3266ZM139.903 26.3266V28.5152C139.903 30.1129 138.656 31.2793 136.454 31.2793C134.268 31.2793 133.004 30.1129 133.004 28.5152V26.3266C133.004 24.7432 134.268 23.5484 136.454 23.5484C138.656 23.5484 139.903 24.7432 139.903 26.3266ZM130.786 23.7068H130.186C130.105 23.7068 130.056 23.7501 130.056 23.8361V31.0051C130.056 31.0775 130.105 31.1202 130.186 31.1202H130.786C130.867 31.1202 130.915 31.0775 130.915 31.0051V23.8361C130.915 23.7501 130.867 23.7068 130.786 23.7068ZM130.494 21.158C130.154 21.158 129.911 21.3746 129.911 21.6766C129.911 21.9643 130.154 22.1802 130.494 22.1802C130.818 22.1802 131.061 21.9643 131.061 21.6766C131.061 21.3746 130.818 21.158 130.494 21.158ZM128.146 30.5306C127.838 30.5448 127.466 30.5597 127.255 30.5597C126.073 30.5597 125.458 29.8969 125.458 28.803V24.4264H127.919C128 24.4264 128.049 24.3831 128.049 24.3113V23.8652C128.049 23.7928 128 23.7359 127.919 23.7359H125.441L125.393 21.9792C125.376 21.9067 125.328 21.8641 125.247 21.8641H124.729C124.648 21.8641 124.599 21.9067 124.599 21.9792V28.832C124.599 30.4297 125.636 31.2793 127.223 31.2793C127.45 31.2793 127.854 31.2644 128.146 31.236C128.243 31.2211 128.276 31.1784 128.276 31.1066V30.6456C128.276 30.5597 128.227 30.5157 128.146 30.5306ZM121.523 27.5648C120.923 27.4497 120.065 27.3488 119.255 27.3488C117.571 27.3488 116.728 27.9249 116.728 28.9471C116.728 29.9836 117.782 30.5881 119.255 30.5881C120.162 30.5881 120.955 30.4155 121.523 30.2428V27.5648ZM122.381 26.2691V30.6456C122.381 30.7032 122.348 30.7607 122.268 30.7892C121.555 31.0342 120.453 31.2793 119.255 31.2793C117.393 31.2793 115.854 30.5015 115.854 28.9471C115.854 27.4639 117.166 26.6725 119.255 26.6725C120.081 26.6725 120.907 26.8019 121.523 26.9027V26.2833C121.523 25.0025 120.891 24.2538 119.255 24.2538C118.284 24.2538 117.377 24.513 116.777 24.8441C116.712 24.8874 116.648 24.8732 116.599 24.815L116.324 24.4413C116.275 24.3831 116.275 24.3255 116.324 24.2971C117.037 23.8503 118.073 23.5484 119.287 23.5484C121.296 23.5484 122.381 24.5415 122.381 26.2691ZM115.061 23.6777C114.51 23.6059 113.943 23.5484 113.409 23.5484C112.47 23.5484 111.465 23.7359 110.672 24.0669C110.591 24.0954 110.559 24.1529 110.559 24.2104V31.0051C110.559 31.0775 110.623 31.1202 110.704 31.1202H111.287C111.368 31.1202 111.416 31.0775 111.416 31.0051V24.5848C112 24.3682 112.761 24.2395 113.506 24.2395C114.008 24.2395 114.559 24.2829 115.045 24.3546C115.125 24.3682 115.191 24.3255 115.191 24.2538V23.807C115.191 23.7359 115.158 23.6919 115.061 23.6777ZM107.773 21.158C107.433 21.158 107.19 21.3746 107.19 21.6766C107.19 21.9643 107.433 22.1802 107.773 22.1802C108.097 22.1802 108.34 21.9643 108.34 21.6766C108.34 21.3746 108.097 21.158 107.773 21.158ZM108.065 23.7068H107.465C107.385 23.7068 107.336 23.7501 107.336 23.8361V31.0051C107.336 31.0775 107.385 31.1202 107.465 31.1202H108.065C108.145 31.1202 108.194 31.0775 108.194 31.0051V23.8361C108.194 23.7501 108.145 23.7068 108.065 23.7068ZM104.276 26.6434C104.276 24.9307 103.304 24.2395 101.635 24.2395C100.81 24.2395 100.016 24.3682 99.3688 24.5848V29.9545C100 30.3431 100.81 30.5881 101.635 30.5881C103.336 30.5881 104.276 29.8678 104.276 28.1978V26.6434ZM105.15 26.6434V28.1978C105.15 30.228 103.79 31.2793 101.685 31.2793C100.826 31.2793 100 31.0485 99.3688 30.7032V33.7407C99.3688 33.8131 99.3201 33.8558 99.2386 33.8558H98.656C98.5752 33.8558 98.5098 33.8131 98.5098 33.7407V24.2104C98.5098 24.1387 98.5425 24.0954 98.6072 24.0669C99.5143 23.7501 100.6 23.5484 101.652 23.5484C103.757 23.5484 105.15 24.4988 105.15 26.6434ZM93.7651 27.0178C92.5504 26.7876 91.3844 26.5141 91.3844 25.5204C91.3844 24.729 92.2427 24.2538 93.5061 24.2538C94.3972 24.2538 95.2715 24.4839 95.9676 24.8441C96.0483 24.8874 96.1298 24.8583 96.1618 24.8001L96.4215 24.4122C96.4702 24.3398 96.4542 24.2829 96.3727 24.2395C95.5312 23.8219 94.6561 23.5484 93.5381 23.5484C91.919 23.5484 90.5428 24.2247 90.5428 25.5204C90.5428 27.0611 92.3394 27.493 93.6036 27.709C94.6721 27.9101 95.8708 28.1267 95.8708 29.1482C95.8708 30.0844 94.9311 30.5881 93.6036 30.5881C92.5991 30.5881 91.692 30.2855 90.8825 29.7527C90.801 29.6959 90.7363 29.7094 90.6883 29.7818L90.4126 30.1847C90.3806 30.2428 90.3806 30.3004 90.4613 30.3431C91.3676 30.9625 92.4209 31.2793 93.5869 31.2793C95.5312 31.2793 96.7459 30.4439 96.7459 29.1198C96.7459 27.5932 95.158 27.2771 93.7651 27.0178ZM87.0448 27.3773L84.7608 21.749H84.7128L82.4129 27.3773H87.0448ZM89.4415 30.9767C89.4583 31.0633 89.4255 31.1202 89.3288 31.1202H88.6647C88.584 31.1202 88.5352 31.0776 88.5025 31.02L87.3198 28.1118H82.1379L80.9552 31.02C80.9232 31.0776 80.8745 31.1202 80.8097 31.1202H80.1289C80.0481 31.1202 79.9994 31.0633 80.0321 30.9767L84.1782 20.9279C84.2102 20.8703 84.2597 20.8276 84.3244 20.8276H85.134C85.1987 20.8276 85.2467 20.8703 85.2787 20.9279L89.4415 30.9767ZM74.2524 24.5706C73.6523 24.3831 72.6972 24.2538 71.9844 24.2538C70.3493 24.2538 69.3608 24.9016 69.3608 26.4566V27.9676C69.3608 29.5368 70.4133 30.1704 71.9844 30.1704C72.8107 30.1704 73.6523 29.9693 74.2524 29.6668V24.5706ZM75.11 24.2247V31.1635C75.11 32.8478 74.1222 34 71.8389 34C70.5755 34 69.6037 33.5972 68.7614 32.9202C68.6959 32.8769 68.6959 32.8194 68.7454 32.7476L69.0371 32.3733C69.0851 32.3157 69.1498 32.3015 69.2153 32.359C69.9274 32.906 70.737 33.3095 71.8389 33.3095C73.5236 33.3095 74.2684 32.5168 74.2524 31.1066V30.3864C73.5716 30.6747 72.7132 30.8622 71.9357 30.8622C69.8954 30.8622 68.4864 29.9112 68.4864 27.9676V26.4566C68.4864 24.3979 69.9601 23.5484 72.0004 23.5484C73.0377 23.5484 74.1709 23.7643 74.9972 24.0805C75.078 24.1096 75.11 24.1671 75.11 24.2247ZM63.0616 23.5484C61.9764 23.5484 60.9399 23.7643 60.0488 24.1096C59.9674 24.1387 59.9346 24.1962 59.9346 24.2538V31.0051C59.9346 31.0775 60.0001 31.1202 60.0816 31.1202H60.6642C60.7457 31.1202 60.7944 31.0775 60.7944 31.0051V24.5997C61.4258 24.3979 62.2513 24.2538 63.0616 24.2538C64.7615 24.2538 65.7173 24.9592 65.7173 26.5717V31.0051C65.7173 31.0775 65.782 31.1202 65.8628 31.1202H66.4461C66.5276 31.1202 66.5756 31.0775 66.5756 31.0051V26.5426C66.5756 24.4988 65.2154 23.5484 63.0616 23.5484ZM57.4419 23.7068H56.8426C56.7618 23.7068 56.7131 23.7501 56.7131 23.8361V31.0051C56.7131 31.0775 56.7618 31.1202 56.8426 31.1202H57.4419C57.5226 31.1202 57.5714 31.0775 57.5714 31.0051V23.8361C57.5714 23.7501 57.5226 23.7068 57.4419 23.7068ZM57.1502 21.158C56.8105 21.158 56.5669 21.3746 56.5669 21.6766C56.5669 21.9643 56.8105 22.1802 57.1502 22.1802C57.4739 22.1802 57.7176 21.9643 57.7176 21.6766C57.7176 21.3746 57.4739 21.158 57.1502 21.158ZM54.9805 30.5306C54.6728 30.5448 54.3004 30.5597 54.0894 30.5597C52.9074 30.5597 52.2921 29.8969 52.2921 28.803V24.4264H54.7535C54.835 24.4264 54.883 24.3831 54.883 24.3113V23.8652C54.883 23.7928 54.835 23.7359 54.7535 23.7359H52.2761L52.2273 21.9792C52.2113 21.9067 52.1626 21.8641 52.0818 21.8641H51.5632C51.4818 21.8641 51.4338 21.9067 51.4338 21.9792V28.832C51.4338 30.4297 52.4695 31.2793 54.0567 31.2793C54.2844 31.2793 54.6888 31.2644 54.9805 31.236C55.0779 31.2211 55.1099 31.1784 55.1099 31.1066V30.6456C55.1099 30.5597 55.0612 30.5157 54.9805 30.5306ZM49.5549 29.8678C49.5062 29.8109 49.4422 29.7961 49.3614 29.8536C48.5999 30.3431 47.8223 30.5881 46.964 30.5881C45.3929 30.5881 44.5026 29.7094 44.5026 28.5579V26.2691C44.5026 25.1318 45.3769 24.2538 46.964 24.2538C47.7736 24.2538 48.4704 24.4548 49.1505 24.8732C49.2312 24.9158 49.2967 24.8874 49.3447 24.8441L49.6204 24.4697C49.6691 24.4122 49.6524 24.3546 49.5717 24.2971C48.7781 23.807 47.9358 23.5484 46.964 23.5484C44.891 23.5484 43.6442 24.729 43.6442 26.2691V28.5579C43.6442 30.0987 44.891 31.2793 46.964 31.2793C48.082 31.2793 48.9723 30.9767 49.8153 30.4006C49.8793 30.3573 49.8793 30.3004 49.8306 30.228L49.5549 29.8678ZM41.1181 26.3409C41.1181 24.974 40.0983 24.2538 38.6726 24.2538C37.1989 24.2538 36.2271 24.9592 36.2271 26.3409V27.162H41.1181V26.3409ZM41.9604 26.3409V27.6941C41.9604 27.7665 41.8956 27.8092 41.8149 27.8092H36.2271V28.6154C36.2271 29.8678 37.3284 30.5881 38.6726 30.5881C39.8873 30.5881 40.7136 30.1271 41.3123 29.6668C41.3937 29.6234 41.4585 29.6234 41.5072 29.6959L41.7989 30.0269C41.8636 30.0844 41.8636 30.1413 41.7822 30.1995C41.0373 30.775 40.0335 31.2793 38.6566 31.2793C36.94 31.2793 35.3528 30.3288 35.3528 28.6154V26.3409C35.3528 24.4988 36.8265 23.5484 38.6726 23.5484C40.5027 23.5484 41.9604 24.4988 41.9604 26.3409ZM29.8146 23.5484C28.7293 23.5484 27.6928 23.7643 26.8018 24.1096C26.721 24.1387 26.689 24.1962 26.689 24.2538V31.0051C26.689 31.0775 26.753 31.1202 26.8352 31.1202H27.4179C27.4986 31.1202 27.5473 31.0775 27.5473 31.0051V24.5997C28.1787 24.3979 29.0043 24.2538 29.8146 24.2538C31.5152 24.2538 32.4702 24.9592 32.4702 26.5717V31.0051C32.4702 31.0775 32.5357 31.1202 32.6164 31.1202H33.1998C33.2805 31.1202 33.3285 31.0775 33.3285 31.0051V26.5426C33.3285 24.4988 31.9683 23.5484 29.8146 23.5484ZM20.9725 23.5484C19.8873 23.5484 18.8508 23.7643 17.9597 24.1096C17.879 24.1387 17.8463 24.1962 17.8463 24.2538V31.0051C17.8463 31.0775 17.911 31.1202 17.9925 31.1202H18.5751C18.6566 31.1202 18.7046 31.0775 18.7046 31.0051V24.5997C19.3367 24.3979 20.163 24.2538 20.9725 24.2538C22.6724 24.2538 23.6282 24.9592 23.6282 26.5717V31.0051C23.6282 31.0775 23.6929 31.1202 23.7737 31.1202H24.357C24.4378 31.1202 24.4865 31.0775 24.4865 31.0051V26.5426C24.4865 24.4988 23.1263 23.5484 20.9725 23.5484ZM15.1746 26.3266C15.1746 25.1318 14.3163 24.2538 12.5837 24.2538C10.8831 24.2538 10.0087 25.1318 10.0087 26.3266V28.5152C10.0087 29.7094 10.8831 30.5881 12.5837 30.5881C14.3163 30.5881 15.1746 29.7094 15.1746 28.5152V26.3266ZM16.0329 26.3266V28.5152C16.0329 30.1129 14.7862 31.2793 12.5837 31.2793C10.3972 31.2793 9.13371 30.1129 9.13371 28.5152V26.3266C9.13371 24.7432 10.3972 23.5484 12.5837 23.5484C14.7862 23.5484 16.0329 24.7432 16.0329 26.3266ZM7.74223 29.9545C7.79024 30.012 7.79024 30.0696 7.7095 30.1271C6.67298 30.9191 5.34479 31.2793 4.06533 31.2793C1.60387 31.2793 0 29.9545 0 27.7956V24.1529C0 21.9934 1.61987 20.6692 4.01659 20.6692C5.24732 20.6692 6.46204 21.0287 7.44982 21.7199C7.53129 21.7632 7.53129 21.8208 7.48256 21.8777L7.15887 22.296C7.11014 22.3529 7.0454 22.3677 6.96393 22.3102C6.10563 21.7341 5.05383 21.4173 4.00059 21.4173C1.96029 21.4173 0.89104 22.5552 0.89104 24.1529V27.7956C0.89104 29.4081 1.97629 30.5306 4.03332 30.5306C5.18258 30.5306 6.31657 30.1847 7.22361 29.5084C7.30435 29.4502 7.36908 29.465 7.41782 29.5368L7.74223 29.9545Z" fill="#307FE2"/>
</g>
</svg>
